<svg viewBox="0 0 42 42" fill="none" xmlns="http://www.w3.org/2000/svg"><path fill-rule="evenodd" clip-rule="evenodd" d="M19 41.108C8.655 40.054.786 31.344.784 20.946.786 10.548 8.655 1.837 19 .784v3.865c-8.242 1.008-14.437 8.007-14.437 16.31 0 8.304 6.195 15.303 14.437 16.311v3.838zm4.135-36.473V.784c10.33 1.071 18.18 9.776 18.18 20.162 0 10.385-7.85 19.09-18.18 20.162v-3.851c8.202-1.058 14.342-8.042 14.342-16.311 0-8.27-6.14-15.253-14.342-16.31z" fill="#fff"/><path fill-rule="evenodd" clip-rule="evenodd" d="M29.284 26.946a.149.149 0 00.121-.162l1.77.04c.005.5-.178.982-.513 1.352-.46.45-1.087.685-1.73.648-.621 0-.986-.554-1.5-1.46l-.095-.162c-.249-.425-.472-.807-.472-.891l-1.987-3.635c-.463.9-.983 1.771-1.554 2.608-1.838 2.608-3.73 3.96-5.608 3.96a7.932 7.932 0 01-7.797-8.109 7.933 7.933 0 017.797-8.108c1.892 0 3.77 1.338 5.608 3.973.56.836 1.065 1.707 1.514 2.608l3.5-4.892h-2.554v-1.77l5.513-.027.095 5.54h-1.77v-2.473L26.014 21l2.432 4.446c.284.567.622 1.162.838 1.5zm-11.581.446c.878 0 2.31-.514 4.162-3.216a21.952 21.952 0 001.77-3.122 21.523 21.523 0 00-1.784-3.108c-1.013-1.46-2.567-3.19-4.148-3.19a6.176 6.176 0 00-6.027 6.298 6.176 6.176 0 006.027 6.338z" fill="#fff"/></svg>