<svg xmlns="http://www.w3.org/2000/svg" viewBox="0 0 30 29.9"><g fill="#fff"><path d="M17.3 19.4v5.4h1.3v-5.4c0-.7.6-1.3 1.3-1.3h1.3l-1.3 1.3.9.9 2.8-2.8-2.8-2.8-.9.9 1.3 1.3h-1.3c-1.4-.1-2.6 1.1-2.6 2.5zm.5-12.1L15 4.5l-2.8 2.8.9.9 1.3-1.3v17.9h1.3V6.9L17 8.2l.8-.9zm-5.2 17.5V14.3c0-1.4-1.2-2.6-2.6-2.6H8.7l1.3-1.3-.9-.9-2.8 2.8 2.8 2.8.9-.9-1.3-1.3H10c.7 0 1.3.6 1.3 1.3v10.5l1.3.1z"/><path d="M2.8 15c0-6.2 4.7-11.3 10.7-12.1V.1C5.9.9 0 7.3 0 15c0 7.8 5.9 14.2 13.5 14.9v-2.8c-6-.8-10.7-5.9-10.7-12.1zM16.5 0v2.8c6 .8 10.6 5.9 10.6 12.1S22.4 26.2 16.5 27v2.8C24.1 29 30 22.6 30 14.9S24.1.8 16.5 0z"/></g></svg>