<svg xmlns="http://www.w3.org/2000/svg" viewBox="0 0 30 29.84"><defs><style>.a{fill:#fff}</style></defs><path class="a" d="M16.53 0v2.84a12.17 12.17 0 010 24.15v2.85a15 15 0 000-29.84zm-3 2.84V0a15 15 0 000 29.84V27a12.17 12.17 0 010-24.16z"/><path class="a" d="M22.67 14.92A7.66 7.66 0 0110 20.73h1.12V19.4H7.73v3.39h1.33v-1.14A8.87 8.87 0 0015 23.9a9 9 0 009-9zM21.13 7.33v1A9 9 0 006 14.92h1.33a7.67 7.67 0 0113-5.53h-1.26v1.33h3.39V7.33zm0 2.06z"/><path class="a" d="M19 16.58c0-.42-.33-1-1.45-1.33a8.56 8.56 0 00-2.63-.37 8.56 8.56 0 00-2.63.37c-1.2.39-1.46 1-1.46 1.42v2.11c0 .43.26 1 1.46 1.42a8.56 8.56 0 002.63.37 8.87 8.87 0 002.63-.37c1.2-.4 1.46-1 1.46-1.42v-2.2zm-4.08-.39a5.91 5.91 0 012.64.48 6 6 0 01-2.64.47 6 6 0 01-2.65-.47 5.93 5.93 0 012.65-.48zm0 3.11a5 5 0 01-2.78-.57V18l.14.05a8.6 8.6 0 002.63.37 8.82 8.82 0 002.63-.37l.15-.05v.69a5 5 0 01-2.77.61zM19 10.85c0-.42-.33-1-1.45-1.34a8.89 8.89 0 00-2.63-.36 8.89 8.89 0 00-2.63.36c-1.2.4-1.46 1-1.46 1.43v2.11c0 .43.26 1 1.46 1.42a8.89 8.89 0 002.63.36 8.89 8.89 0 002.63-.36c1.2-.4 1.46-1 1.46-1.42v-2.2zm-4.08-.39a5.77 5.77 0 012.64.48 6 6 0 01-2.64.47 6 6 0 01-2.65-.47 5.79 5.79 0 012.65-.48zm0 3.1a5.13 5.13 0 01-2.78-.56v-.69h.14a8.94 8.94 0 002.63.36 8.84 8.84 0 002.63-.36h.15V13a5.12 5.12 0 01-2.77.56z"/></svg>