<svg version="1.1" id="Layer_4" xmlns="http://www.w3.org/2000/svg" x="0" y="0" viewBox="0 0 650 650" xml:space="preserve"><style>.st0{fill:#fff}</style><g id="Layer_4_1_"><path class="st0" d="M355.7 26.6v56.9C475.6 98.6 568.5 201.2 568.5 325s-92.9 226.3-212.8 241.4v57C507 608.2 625 480.3 625 325S507 41.9 355.7 26.6zM25 325c0 155.5 118.2 283.3 269.7 298.4v-56.9c-120-15-213.1-117.6-213.1-241.5S174.7 98.3 294.7 83.3V26.6C143.2 41.7 25 169.4 25 325z"/><path class="st0" d="M405.3 264.3c-.7-8.4-6.6-19.3-29.1-26.7-14.3-4.7-33-7.3-52.7-7.3s-38.4 2.6-52.7 7.3c-24.1 7.9-29.2 19.9-29.2 28.5 0 .7.1 1.4.1 2.2v40.8c0 8.6 5.1 20.6 29.2 28.5 14.3 4.7 33 7.3 52.7 7.3s38.4-2.6 52.7-7.3c24.1-7.9 29.2-19.9 29.2-28.5v-44.8h-.2zm-81.7-7.8c28.6 0 46 5.7 52.9 9.6-7 3.8-24.4 9.6-52.9 9.6-28.6 0-46-5.7-52.9-9.6 6.9-3.9 24.3-9.6 52.9-9.6zm.1 62.2c-33.5 0-51.6-7.8-55.6-11.3v-13.8c.9.3 1.8.7 2.8 1 14.3 4.7 33 7.3 52.7 7.3s38.4-2.6 52.7-7.3c1.1-.3 2.1-.7 3-1.1v13.9c-4 3.4-22.2 11.3-55.6 11.3zM405.3 149.5c-.7-8.4-6.6-19.3-29.1-26.7-14.3-4.7-33-7.3-52.7-7.3s-38.4 2.6-52.7 7.3c-24.1 7.9-29.2 19.9-29.2 28.5 0 .7.1 1.4.1 2.2v40.8c0 8.6 5.1 20.6 29.2 28.5 14.3 4.7 33 7.3 52.7 7.3s38.4-2.6 52.7-7.3c24.1-7.9 29.2-19.9 29.2-28.5v-44.8h-.2zm-81.7-7.8c28.6 0 46 5.7 52.9 9.6-7 3.8-24.4 9.6-52.9 9.6-28.6 0-46-5.7-52.9-9.6 6.9-4 24.3-9.6 52.9-9.6zm.1 62.1c-33.5 0-51.6-7.8-55.6-11.3v-13.8c.9.3 1.8.7 2.8 1 14.3 4.7 33 7.3 52.7 7.3s38.4-2.6 52.7-7.3c1.1-.3 2.1-.7 3-1.1v13.9c-4 3.5-22.1 11.3-55.6 11.3z"/><path class="st0" d="M506.4 339.6c-14.3-14.3-37.4-14.3-51.7 0l-42.6 43.3c-6.3-11.1-18.2-18.6-31.8-18.6H274.6l-7.1 7.2v-18.1h-143l74 143.6h69v-11.4H412l94.3-94.3c6.9-6.9 10.7-16.1 10.7-25.8s-3.7-19-10.6-25.9zM241.3 470.8h-26.8l-47-91.1h73.7l.1 91.1zm246.5-98l-86.7 86.6H267.6v-50.5l18-18.2h94.7c5.7 0 10.3 4.6 10.3 10.3 0 5.7-4.6 10.3-10.3 10.3h-53v26.2h53c12.4 0 23.3-6.2 29.9-15.6l.2.2 62.8-63.9c4.1-4 10.6-4 14.6.1 1.9 1.9 3 4.6 3 7.3s-1 5.2-3 7.2z"/></g></svg>