<svg xmlns="http://www.w3.org/2000/svg" viewBox="0 0 30 29.84"><defs><style>.a{fill:#fff}</style></defs><path class="a" d="M2.83 14.92A12.19 12.19 0 0113.49 2.84V0a15 15 0 000 29.84V27A12.19 12.19 0 012.83 14.92zM16.54 0v2.84a12.17 12.17 0 010 24.15v2.85a15 15 0 000-29.84z"/><path class="a" d="M15.66 21.8v-2.15a4.76 4.76 0 002.23-.92l1.51 1.52a1.77 1.77 0 00-.16.77 1.86 1.86 0 101.85-1.86 1.91 1.91 0 00-.76.16l-1.52-1.52a4.68 4.68 0 00.92-2.22h2.15a1.87 1.87 0 100-1.31h-2.15a4.76 4.76 0 00-.92-2.27l1.52-1.52a1.91 1.91 0 00.76.16 1.86 1.86 0 10-1.86-1.86 1.77 1.77 0 00.17.77l-1.52 1.52a4.68 4.68 0 00-2.22-.92V8a1.86 1.86 0 10-1.32 0v2.15a4.76 4.76 0 00-2.22.92L10.6 9.59a1.93 1.93 0 00.16-.77 1.86 1.86 0 10-1.85 1.86 1.91 1.91 0 00.76-.16L11.19 12a4.72 4.72 0 00-.92 2.22H8.12a1.86 1.86 0 10-.43 2 1.75 1.75 0 00.43-.66h2.15a4.76 4.76 0 00.92 2.23l-1.52 1.53a1.91 1.91 0 00-.76-.16A1.86 1.86 0 1010.77 21a1.77 1.77 0 00-.17-.77l1.52-1.53a4.77 4.77 0 002.23.93v2.17a1.86 1.86 0 101.31 0zM15 18.39a3.47 3.47 0 113.47-3.47A3.47 3.47 0 0115 18.39z"/></svg>