<svg xmlns="http://www.w3.org/2000/svg" viewBox="0 0 30 29.84"><defs><style>.a{fill:#fff}</style></defs><path class="a" d="M16.54 0v2.85a12.17 12.17 0 010 24.14v2.85a15 15 0 000-29.84zM2.83 14.92A12.19 12.19 0 0113.48 2.84V0a15 15 0 000 29.84V27A12.17 12.17 0 012.83 14.92z"/><path class="a" d="M14.26 16.44v2.16h1.3v-2.16a1.5 1.5 0 10-1.3 0z"/><path class="a" d="M11.18 7.51v2.73h-3v12.25h13.5V10.24h-3V7.51a2.72 2.72 0 00-2.88-2.59H14a2.73 2.73 0 00-2.82 2.59zm9.17 13.67H9.47v-9.63h10.88v9.63zM14 6.23h1.8a1.41 1.41 0 011.52 1.28v2.73h-4.83V7.51A1.43 1.43 0 0114 6.23z"/></svg>