<svg xmlns="http://www.w3.org/2000/svg" viewBox="0 0 30 29.84"><defs><style>.a{fill:#fff}</style></defs><path class="a" d="M2.83 14.92A12.19 12.19 0 0113.48 2.84V0a15 15 0 000 29.84V27A12.19 12.19 0 012.83 14.92zM16.54 0v2.85a12.17 12.17 0 010 24.15v2.84a15 15 0 000-29.84z"/><path class="a" d="M17.5 13.16A1.81 1.81 0 0119.31 15h1.31v-.11a1.81 1.81 0 013.61.07h1.36A10.55 10.55 0 0015.37 4.43h-.63A10.54 10.54 0 004.51 15h1.35a1.81 1.81 0 013.61 0h1.33v-.27a1.8 1.8 0 013.59.13V15h1.32v-.1a1.78 1.78 0 011.79-1.74zm0-1.31a3.09 3.09 0 00-1.82.59v-6.6a4.59 4.59 0 012.26 2.43 13.69 13.69 0 011.18 4 3 3 0 00-1.62-.42zm6.35.35a3 3 0 00-1.43-.35 3.13 3.13 0 00-2 .69 13.12 13.12 0 00-2.2-6.23 9.28 9.28 0 015.63 5.89zm-16.18-.35a3 3 0 00-1.43.35 9.22 9.22 0 015.6-5.89 13.09 13.09 0 00-2.21 6.24 3.09 3.09 0 00-1.96-.7zm4.92 0a3.07 3.07 0 00-1.6.44 13.55 13.55 0 011.18-4 4.64 4.64 0 012.2-2.42v6.56a3.11 3.11 0 00-1.78-.58zM14.37 16.28h1.31v6.4h-1.31zM14.37 23.98h1.31v1.36h-1.31z"/></svg>