<svg xmlns="http://www.w3.org/2000/svg" viewBox="0 0 30 29.84"><defs><style>.a{fill:#fff}</style></defs><path class="a" d="M16.53 0v2.84a12.17 12.17 0 010 24.15v2.84a15 15 0 000-29.83zM0 14.92a15 15 0 0013.48 14.92V27a12.17 12.17 0 010-24.16V0A15 15 0 000 14.92z"/><path class="a" d="M22.25 17.72h.23a8.74 8.74 0 10-14.86 0h1.11l-2.82 2.8.92.93 3.57-3.54h5.77a.52.52 0 010 1h-2.65v1.31h2.65a1.83 1.83 0 001.47-.75L20 17.32a.56.56 0 01.37-.15.51.51 0 01.36.15.53.53 0 010 .73l-3.58 3.32H9.57L8 23l.94.9 1.22-1.27h7.61l4-3.68a1.79 1.79 0 00.48-1.23zm-.53-1.35a1.84 1.84 0 00-2.57 0h-.19a17.84 17.84 0 00.28-2.6h3.24a7.45 7.45 0 01-.76 2.6zm-3.83-2.58a16.28 16.28 0 01-.29 2.6h-5.1a16.26 16.26 0 01-.3-2.6zm-5.69-1.31a16.34 16.34 0 01.26-2.39h5.18a17.87 17.87 0 01.25 2.39zm9.61-2.39a7.16 7.16 0 01.63 2.39H19.2a18.25 18.25 0 00-.2-2.39zm-.76-1.32h-2.37a12.16 12.16 0 00-.55-1.61 9.13 9.13 0 00-.51-1 7.58 7.58 0 013.43 2.61zm-7.88-1.08c.53-1.24 1.24-2 1.88-2s1.35.74 1.88 2a9.72 9.72 0 01.4 1.08h-4.56a9.72 9.72 0 01.4-1.08zm-.69-1.52a7.64 7.64 0 00-.51 1 12.17 12.17 0 00-.56 1.61H9.05a7.47 7.47 0 013.43-2.61zm-4.2 3.92h2.85a18.25 18.25 0 00-.24 2.39H7.66a7.39 7.39 0 01.62-2.39zm-.62 3.7h3.23a17.84 17.84 0 00.28 2.6H8.38a7.34 7.34 0 01-.72-2.6z"/></svg>